<?xml version="1.0" encoding="utf-8"?>

<!-- Uploaded to: SVG Repo, www.svgrepo.com, Generator: SVG Repo Mixer Tools -->
<svg height="800px" width="800px" version="1.1" id="Layer_1" xmlns="http://www.w3.org/2000/svg" xmlns:xlink="http://www.w3.org/1999/xlink" 
	 viewBox="0 0 100 100" enable-background="new 0 0 100 100" xml:space="preserve">
<g>
	<path fill="#231F20" d="M37.6,62.3c-0.3,0-0.5-0.1-0.8-0.3c-0.4-0.4-0.4-1.1,0-1.5l9.2-9.2c0.4-0.4,1.1-0.4,1.5,0
		c0.4,0.4,0.4,1.1,0,1.5L38.4,62C38.2,62.2,37.9,62.3,37.6,62.3z"/>
	<path fill="#231F20" d="M55.1,44.7c-0.3,0-0.5-0.1-0.8-0.3c-0.4-0.4-0.4-1.1,0-1.5l8.5-8.5c0.4-0.4,1.1-0.4,1.5,0
		c0.4,0.4,0.4,1.1,0,1.5l-8.5,8.5C55.7,44.6,55.4,44.7,55.1,44.7z"/>
	<path fill="#231F20" d="M27.8,72.1c-0.3,0-0.5-0.1-0.8-0.3c-0.4-0.4-0.4-1.1,0-1.5l2-2c0.4-0.4,1.1-0.4,1.5,0
		c0.4,0.4,0.4,1.1,0,1.5l-2,2C28.3,72,28.1,72.1,27.8,72.1z"/>
	<path fill="#231F20" d="M31.4,71.7c-0.3,0-0.5-0.1-0.8-0.3l-3.2-3.2c-0.4-0.4-0.4-1.1,0-1.5c0.4-0.4,1.1-0.4,1.5,0l3.2,3.2
		c0.4,0.4,0.4,1.1,0,1.5C31.9,71.6,31.7,71.7,31.4,71.7z"/>
	<path fill="#231F20" d="M39.2,63.9c-0.3,0-0.5-0.1-0.8-0.3l-3.2-3.2c-0.4-0.4-0.4-1.1,0-1.5c0.4-0.4,1.1-0.4,1.5,0L40,62
		c0.4,0.4,0.4,1.1,0,1.5C39.8,63.8,39.5,63.9,39.2,63.9z"/>
	<path fill="#231F20" d="M33.7,69.2c-0.6,0-1.1-0.5-1.1-1.1v-6c0-0.6,0.5-1.1,1.1-1.1c0.6,0,1.1,0.5,1.1,1.1v6
		C34.8,68.7,34.3,69.2,33.7,69.2z"/>
	<path fill="#231F20" d="M36.7,66.2h-6c-0.6,0-1.1-0.5-1.1-1.1c0-0.6,0.5-1.1,1.1-1.1h6c0.6,0,1.1,0.5,1.1,1.1
		C37.8,65.7,37.3,66.2,36.7,66.2z"/>
	<path fill="#231F20" d="M64.1,62.3c-0.3,0-0.5-0.1-0.8-0.3l-26-26c-0.4-0.4-0.4-1.1,0-1.5c0.4-0.4,1.1-0.4,1.5,0l26,26
		c0.4,0.4,0.4,1.1,0,1.5C64.6,62.2,64.4,62.3,64.1,62.3z"/>
	<path fill="#231F20" d="M73.9,72.1c-0.3,0-0.5-0.1-0.8-0.3l-2-2c-0.4-0.4-0.4-1.1,0-1.5c0.4-0.4,1.1-0.4,1.5,0l2,2
		c0.4,0.4,0.4,1.1,0,1.5C74.5,72,74.2,72.1,73.9,72.1z"/>
	<path fill="#231F20" d="M70.3,71.7c-0.3,0-0.5-0.1-0.8-0.3c-0.4-0.4-0.4-1.1,0-1.5l3.2-3.2c0.4-0.4,1.1-0.4,1.5,0
		c0.4,0.4,0.4,1.1,0,1.5l-3.2,3.2C70.9,71.6,70.6,71.7,70.3,71.7z"/>
	<path fill="#231F20" d="M62.5,63.9c-0.3,0-0.5-0.1-0.8-0.3c-0.4-0.4-0.4-1.1,0-1.5l3.2-3.2c0.4-0.4,1.1-0.4,1.5,0
		c0.4,0.4,0.4,1.1,0,1.5l-3.2,3.2C63,63.8,62.8,63.9,62.5,63.9z"/>
	<path fill="#231F20" d="M71,66.2h-6c-0.6,0-1.1-0.5-1.1-1.1c0-0.6,0.5-1.1,1.1-1.1h6c0.6,0,1.1,0.5,1.1,1.1
		C72.1,65.7,71.6,66.2,71,66.2z"/>
	<path fill="#231F20" d="M68,69.2c-0.6,0-1.1-0.5-1.1-1.1v-6c0-0.6,0.5-1.1,1.1-1.1c0.6,0,1.1,0.5,1.1,1.1v6
		C69.1,68.7,68.6,69.2,68,69.2z"/>
	<path fill="#231F20" d="M59.2,64.7c-0.3,0-0.5-0.1-0.8-0.3L33,38.8c-0.2-0.2-0.3-0.3-0.3-0.6L31,29.4c-0.1-0.3,0-0.7,0.3-1
		c0.2-0.2,0.6-0.4,1-0.3l8.9,1.7c0.2,0,0.4,0.1,0.6,0.3l25.5,25.5c0.4,0.4,0.4,1.1,0,1.5L60,64.4C59.8,64.6,59.5,64.7,59.2,64.7z
		 M34.7,37.6l24.5,24.5l5.8-5.8L40.5,31.8l-7.1-1.3L34.7,37.6z"/>
	<g>
		<path fill="#231F20" d="M42.5,64.7c-0.3,0-0.6-0.1-0.8-0.3l-7.3-7.3c-0.4-0.4-0.4-1.1,0-1.5l8.4-8.4c0.4-0.4,1.1-0.4,1.5,0
			l7.3,7.3c0.4,0.4,0.4,1.1,0,1.5l-8.4,8.4C43,64.6,42.8,64.7,42.5,64.7z M36.7,56.3l5.8,5.8l6.9-6.9l-5.8-5.8L36.7,56.3z"/>
		<path fill="#231F20" d="M58.1,49c-0.3,0-0.5-0.1-0.8-0.3l-7.3-7.3c-0.2-0.2-0.3-0.5-0.3-0.8c0-0.3,0.1-0.6,0.3-0.8l9.9-9.9
			c0.2-0.2,0.3-0.3,0.6-0.3l8.9-1.7c0.3-0.1,0.7,0,1,0.3c0.2,0.2,0.4,0.6,0.3,1l-1.7,8.9c0,0.2-0.1,0.4-0.3,0.6l-9.9,9.9
			C58.7,48.9,58.4,49,58.1,49z M52.4,40.7l5.8,5.8l8.9-8.9l1.3-7.1l-7.1,1.3L52.4,40.7z"/>
	</g>
</g>
</svg>